<?xml version="1.0" encoding="UTF-8" standalone="no"?>
<!-- Created with Inkscape (http://www.inkscape.org/) -->

<svg
   width="160mm"
   height="95mm"
   viewBox="0 0 160 95"
   version="1.1"
   id="svg1"
   sodipodi:docname="holos-logo.svg"
   inkscape:export-filename="holos-logo.png"
   inkscape:export-xdpi="162.56"
   inkscape:export-ydpi="162.56"
   inkscape:version="1.4 (e7c3feb1, 2024-10-09)"
   xmlns:inkscape="http://www.inkscape.org/namespaces/inkscape"
   xmlns:sodipodi="http://sodipodi.sourceforge.net/DTD/sodipodi-0.dtd"
   xmlns="http://www.w3.org/2000/svg"
   xmlns:svg="http://www.w3.org/2000/svg">
  <sodipodi:namedview
     id="namedview1"
     pagecolor="#ffffff"
     bordercolor="#000000"
     borderopacity="0.25"
     inkscape:showpageshadow="2"
     inkscape:pageopacity="0.0"
     inkscape:pagecheckerboard="0"
     inkscape:deskcolor="#d1d1d1"
     inkscape:document-units="mm"
     inkscape:zoom="0.95051439"
     inkscape:cx="281.42657"
     inkscape:cy="156.2312"
     inkscape:window-width="1920"
     inkscape:window-height="940"
     inkscape:window-x="1440"
     inkscape:window-y="30"
     inkscape:window-maximized="0"
     inkscape:current-layer="svg1" />
  <defs
     id="defs1">
    <clipPath
       clipPathUnits="userSpaceOnUse"
       id="clipPath691">
      <path
         d="m 1186.6431,1282.3729 h 1750 v 191.6196 h -1750 z"
         transform="matrix(0.33616294,0,0,0.33655674,-306.4451,3.8180004)"
         clip-rule="evenodd"
         id="path691" />
    </clipPath>
    <clipPath
       clipPathUnits="userSpaceOnUse"
       id="clipPath693">
      <path
         d="m 1186.6431,1282.3729 h 1750 v 191.6196 h -1750 z"
         transform="matrix(0.33616294,0,0,0.33655674,-306.4451,3.8180004)"
         clip-rule="evenodd"
         id="path693" />
    </clipPath>
    <clipPath
       clipPathUnits="userSpaceOnUse"
       id="clipPath695">
      <path
         d="m 1186.6431,1282.3729 h 1750 v 191.6196 h -1750 z"
         transform="matrix(0.33616294,0,0,0.33655674,-306.4451,3.8180004)"
         clip-rule="evenodd"
         id="path695" />
    </clipPath>
    <clipPath
       clipPathUnits="userSpaceOnUse"
       id="clipPath697">
      <path
         d="m 1186.6431,1282.3729 h 1750 v 191.6196 h -1750 z"
         transform="matrix(0.33616294,0,0,0.33655674,-306.4451,3.8180004)"
         clip-rule="evenodd"
         id="path697" />
    </clipPath>
    <clipPath
       clipPathUnits="userSpaceOnUse"
       id="clipPath699">
      <path
         d="m 1186.6431,1282.3729 h 1750 v 191.6196 h -1750 z"
         transform="matrix(0.33616294,0,0,0.33655674,-306.4451,3.8180004)"
         clip-rule="evenodd"
         id="path699" />
    </clipPath>
    <clipPath
       clipPathUnits="userSpaceOnUse"
       id="clipPath701">
      <path
         d="m 1186.6431,1282.3729 h 1750 v 191.6196 h -1750 z"
         transform="matrix(0.33616294,0,0,0.33655674,-306.4451,3.8180004)"
         clip-rule="evenodd"
         id="path701" />
    </clipPath>
    <clipPath
       clipPathUnits="userSpaceOnUse"
       id="clipPath703">
      <path
         d="m 1186.6431,1282.3729 h 1750 v 191.6196 h -1750 z"
         transform="matrix(0.33616294,0,0,0.33655674,-306.4451,3.8180004)"
         clip-rule="evenodd"
         id="path703" />
    </clipPath>
    <clipPath
       clipPathUnits="userSpaceOnUse"
       id="clipPath705">
      <path
         d="m 1186.6431,1282.3729 h 1750 v 191.6196 h -1750 z"
         transform="matrix(0.33616294,0,0,0.33655674,-306.4451,3.8180004)"
         clip-rule="evenodd"
         id="path705" />
    </clipPath>
    <clipPath
       clipPathUnits="userSpaceOnUse"
       id="clipPath707">
      <path
         d="m 1186.6431,1282.3729 h 1750 v 191.6196 h -1750 z"
         transform="matrix(0.33616294,0,0,0.33655674,-306.4451,3.8180004)"
         clip-rule="evenodd"
         id="path707" />
    </clipPath>
    <clipPath
       clipPathUnits="userSpaceOnUse"
       id="clipPath709">
      <path
         d="m 1186.6431,1282.3729 h 1750 v 191.6196 h -1750 z"
         transform="matrix(0.33616294,0,0,0.33655674,-306.4451,3.8180004)"
         clip-rule="evenodd"
         id="path709" />
    </clipPath>
    <clipPath
       clipPathUnits="userSpaceOnUse"
       id="clipPath711">
      <path
         d="m 1186.6431,1282.3729 h 1750 v 191.6196 h -1750 z"
         transform="matrix(0.33616294,0,0,0.33655674,-306.4451,3.8180004)"
         clip-rule="evenodd"
         id="path711" />
    </clipPath>
    <clipPath
       clipPathUnits="userSpaceOnUse"
       id="clipPath713">
      <path
         d="m 1186.6431,1282.3729 h 1750 v 191.6196 h -1750 z"
         transform="matrix(0.33616294,0,0,0.33655674,-306.4451,3.8180004)"
         clip-rule="evenodd"
         id="path713" />
    </clipPath>
    <clipPath
       clipPathUnits="userSpaceOnUse"
       id="clipPath715">
      <path
         d="m 1186.6431,1282.3729 h 1750 v 191.6196 h -1750 z"
         transform="matrix(0.33616294,0,0,0.33655674,-306.4451,3.8180004)"
         clip-rule="evenodd"
         id="path715" />
    </clipPath>
    <clipPath
       clipPathUnits="userSpaceOnUse"
       id="clipPath717">
      <path
         d="m 1186.6431,1282.3729 h 1750 v 191.6196 h -1750 z"
         transform="matrix(0.33616294,0,0,0.33655674,-306.4451,3.8180004)"
         clip-rule="evenodd"
         id="path717" />
    </clipPath>
    <clipPath
       clipPathUnits="userSpaceOnUse"
       id="clipPath719">
      <path
         d="m 1186.6431,1282.3729 h 1750 v 191.6196 h -1750 z"
         transform="matrix(0.33616294,0,0,0.33655674,-306.4451,3.8180004)"
         clip-rule="evenodd"
         id="path719" />
    </clipPath>
    <clipPath
       clipPathUnits="userSpaceOnUse"
       id="clipPath721">
      <path
         d="m 1186.6431,1282.3729 h 1750 v 191.6196 h -1750 z"
         transform="matrix(0.33616294,0,0,0.33655674,-306.4451,3.8180004)"
         clip-rule="evenodd"
         id="path721" />
    </clipPath>
    <clipPath
       clipPathUnits="userSpaceOnUse"
       id="clipPath723">
      <path
         d="m 1186.6431,1282.3729 h 1750 v 191.6196 h -1750 z"
         transform="matrix(0.33616294,0,0,0.33655674,-306.4451,3.8180004)"
         clip-rule="evenodd"
         id="path723" />
    </clipPath>
    <linearGradient
       x1="113.56"
       y1="413"
       x2="662.89001"
       y2="413"
       gradientUnits="userSpaceOnUse"
       gradientTransform="translate(4.0134772e-6,-13.167823)"
       spreadMethod="pad"
       id="linearGradient731">
      <stop
         style="stop-opacity:1;stop-color:#8a70b2"
         offset="0"
         id="stop724" />
      <stop
         style="stop-opacity:1;stop-color:#807fbd"
         offset="0.05"
         id="stop725" />
      <stop
         style="stop-opacity:1;stop-color:#7392cb"
         offset="0.12000001"
         id="stop726" />
      <stop
         style="stop-opacity:1;stop-color:#6c9dd3"
         offset="0.2"
         id="stop727" />
      <stop
         style="stop-opacity:1;stop-color:#69a1d6"
         offset="0.29000002"
         id="stop728" />
      <stop
         style="stop-opacity:1;stop-color:#45b6af"
         offset="0.67000002"
         id="stop729" />
      <stop
         style="stop-opacity:1;stop-color:#63b87a"
         offset="0.88999999"
         id="stop730" />
      <stop
         style="stop-opacity:1;stop-color:#d8d456"
         offset="1"
         id="stop731" />
    </linearGradient>
    <clipPath
       clipPathUnits="userSpaceOnUse"
       id="clipPath731">
      <path
         d="m 1232.3193,517.76941 h 1703.125 v 749.99999 h -1703.125 z"
         transform="matrix(0.3996946,0,0,0.3990238,-400.09181,-69.55845)"
         clip-rule="evenodd"
         id="path731" />
    </clipPath>
    <clipPath
       clipPathUnits="userSpaceOnUse"
       id="clipPath733">
      <path
         d="m 1232.3193,517.76941 h 1703.125 v 749.99999 h -1703.125 z"
         transform="matrix(0.3996946,0,0,0.3990238,-400.09181,-69.55845)"
         clip-rule="evenodd"
         id="path733" />
    </clipPath>
    <clipPath
       clipPathUnits="userSpaceOnUse"
       id="clipPath735">
      <path
         d="m 1232.3193,517.76941 h 1703.125 v 749.99999 h -1703.125 z"
         transform="matrix(0.3996946,0,0,0.3990238,-400.09181,-69.55845)"
         clip-rule="evenodd"
         id="path735" />
    </clipPath>
    <clipPath
       clipPathUnits="userSpaceOnUse"
       id="clipPath737">
      <path
         d="m 1232.3193,517.76941 h 1703.125 v 749.99999 h -1703.125 z"
         transform="matrix(0.3996946,0,0,0.3990238,-400.09181,-69.55845)"
         clip-rule="evenodd"
         id="path737" />
    </clipPath>
    <clipPath
       clipPathUnits="userSpaceOnUse"
       id="clipPath739">
      <path
         d="m 1232.3193,517.76941 h 1703.125 v 749.99999 h -1703.125 z"
         transform="matrix(0.3996946,0,0,0.3990238,-400.09181,-69.55845)"
         clip-rule="evenodd"
         id="path739" />
    </clipPath>
  </defs>
  <g
     id="layer1">
    <path
       id="path690"
       d="m 131.42999,445.84 v 17 H 151.09 v -17 h 5.27999 v 40.67001 H 151.09 v -19.08002 h -19.66001 v 19.07999 h -5.28 V 445.84 Z"
       style="fill:#6d6e71;fill-opacity:1;fill-rule:nonzero;stroke:none"
       transform="matrix(0.25186198,0,0,0.25156727,-19.817656,-37.82686)"
       clip-path="url(#clipPath691)" />
    <path
       id="path692"
       d="m 191.64,471.64001 c 0,10.81 -7.5,15.54001 -14.52,15.54001 -7.91001,0 -14.00001,-5.76999 -14.00001,-15 0,-9.76001 6.42,-15.48001 14.50001,-15.48001 8.38,-0.04 14.02,6.04999 14.02,14.94 z M 168.5,472 c 0,6.39999 3.66,11.22 8.84,11.22 5.17999,0 8.89999,-4.76001 8.89999,-11.38 0,-4.94001 -2.49001,-11.18 -8.8,-11.18 -6.31,0 -8.93999,5.79001 -8.93999,11.34 z"
       style="fill:#6d6e71;fill-opacity:1;fill-rule:nonzero;stroke:none"
       transform="matrix(0.25186198,0,0,0.25156727,-19.817656,-37.82686)"
       clip-path="url(#clipPath693)" />
    <path
       id="path694"
       d="m 198.35001,443.67001 h 5.28 v 42.84 h -5.28 z"
       style="fill:#6d6e71;fill-opacity:1;fill-rule:nonzero;stroke:none"
       transform="matrix(0.25186198,0,0,0.25156727,-19.817656,-37.82686)"
       clip-path="url(#clipPath695)" />
    <path
       id="path696"
       d="m 239,471.64001 c 0,10.81 -7.5,15.54001 -14.50999,15.54001 -7.92,0 -14,-5.76999 -14,-15 0,-9.76001 6.41999,-15.48001 14.49,-15.48001 8.37,-0.04 14.01999,6.04999 14.01999,14.94 z m -23.14,0.34 c 0,6.39999 3.67,11.22 8.85001,11.22 5.18,0 8.89,-4.76001 8.89,-11.38 0,-4.94001 -2.49001,-11.18 -8.80001,-11.18 -6.30999,0 -8.93,5.81 -8.93,11.35999 l -0.01,-0.02 z"
       style="fill:#6d6e71;fill-opacity:1;fill-rule:nonzero;stroke:none"
       transform="matrix(0.25186198,0,0,0.25156727,-19.817656,-37.82686)"
       clip-path="url(#clipPath697)" />
    <path
       id="path698"
       d="m 245,481.10999 c 2.15279,1.3009 4.48613,1.99423 7,2.07998 3.87,0 5.67001,-1.91 5.67001,-4.35 0,-2.44001 -1.54001,-3.89002 -5.41999,-5.34 -5.28,-1.91 -7.77001,-4.78 -7.76,-8.28 0,-4.70001 3.82001,-8.56 10.10001,-8.56 2.54513,-0.0427 4.92846,0.55735 7.14999,1.79999 l -1.32001,3.85999 c -1.83743,-1.14045 -3.83743,-1.71378 -6,-1.72 -3.13,0 -4.83,1.80999 -4.83,4 0,2.41 1.71001,3.48999 5.53999,5 5,1.88 7.64002,4.41 7.65,8.76998 0,5.17002 -4,8.79999 -10.91,8.79999 -2.9088,0.0528 -5.64214,-0.61389 -8.2,-2 z"
       style="fill:#6d6e71;fill-opacity:1;fill-rule:nonzero;stroke:none"
       transform="matrix(0.25186198,0,0,0.25156727,-19.817656,-37.82686)"
       clip-path="url(#clipPath699)" />
    <path
       id="path700"
       d="m 303.62,467.44 h -15.76999 v 14.70001 h 17.63998 v 4.37 H 282.57001 V 445.84 h 22 v 4.36999 h -16.72 v 12.89002 H 303.62 Z"
       style="fill:#6d6e71;fill-opacity:1;fill-rule:nonzero;stroke:none"
       transform="matrix(0.25186198,0,0,0.25156727,-19.817656,-37.82686)"
       clip-path="url(#clipPath701)" />
    <path
       id="path702"
       d="m 328.23001,486.51001 -0.47,-3.67999 h -0.16 c -1.05124,1.40173 -2.36444,2.48626 -3.93961,3.2536 -1.57516,0.7673 -3.23865,1.13275 -4.99039,1.0964 -5.89001,0 -8.91,-4.19 -8.91,-8.38 0,-7.07001 6.26999,-10.95001 17.54001,-10.87 v -0.61999 c 0,-2.37 -0.67002,-6.76999 -6.64002,-6.73001 -2.74557,-0.009 -5.28222,0.71408 -7.60998,2.17001 l -1.20001,-3.53 c 2.96884,-1.7605 6.17886,-2.61383 9.63,-2.56 8.92001,0 11.10001,6.10001 11.10001,11.95002 v 10.92001 c -0.0348,2.34476 0.11184,4.67807 0.44,7 l -4.79001,-0.02 z m -0.82999,-14.89999 c -5.73999,-0.12 -12.32,0.91 -12.32,6.54998 0,3.48999 2.29998,5.09 5,5.09 0.77548,0.0232 1.53537,-0.0748 2.27966,-0.29385 0.74423,-0.21909 1.43594,-0.5485 2.0752,-0.98816 0.63925,-0.43964 1.19427,-0.96778 1.66513,-1.58438 0.47085,-0.61661 0.83419,-1.29117 1.08999,-2.02362 0.17179,-0.54343 0.25513,-1.1001 0.25,-1.67002 l -0.04,-5.07995 z"
       style="fill:#6d6e71;fill-opacity:1;fill-rule:nonzero;stroke:none"
       transform="matrix(0.25186198,0,0,0.25156727,-19.817656,-37.82686)"
       clip-path="url(#clipPath703)" />
    <path
       id="path704"
       d="m 341.13,466.42001 c 0,-3.45001 -0.09,-6.39001 -0.25,-9.08999 h 4.66001 l 0.20001,5.72 h 0.19 c 1.35999,-3.91001 4.57999,-6.39002 8.13001,-6.39002 0.49606,-0.009 0.98605,0.0407 1.47,0.15 v 5 c -0.59393,-0.12155 -1.19394,-0.17487 -1.79999,-0.16001 -3.73999,0 -6.39001,2.82001 -7.10998,6.79001 -0.14435,0.82035 -0.21436,1.64704 -0.21,2.48001 v 15.59 h -5.27999 z"
       style="fill:#6d6e71;fill-opacity:1;fill-rule:nonzero;stroke:none"
       transform="matrix(0.25186198,0,0,0.25156727,-19.817656,-37.82686)"
       clip-path="url(#clipPath705)" />
    <path
       id="path706"
       d="m 368.69,448.92999 v 8.4 h 7.62 v 4 h -7.62 V 477.06 c 0,3.63 1.04999,5.69 4,5.69 1.04633,0.0253 2.073,-0.10471 3.07999,-0.39001 l 0.23999,4 c -1.53668,0.52456 -3.11667,0.76791 -4.73999,0.73001 -1.07272,0.0568 -2.10907,-0.11103 -3.10901,-0.50367 -0.99991,-0.39263 -1.8736,-0.97476 -2.621,-1.74633 -1.45999,-1.60999 -2.06,-4.19001 -2.06,-7.60999 v -15.88 H 359 v -4 h 4.51999 v -7 z"
       style="fill:#6d6e71;fill-opacity:1;fill-rule:nonzero;stroke:none"
       transform="matrix(0.25186198,0,0,0.25156727,-19.817656,-37.82686)"
       clip-path="url(#clipPath707)" />
    <path
       id="path708"
       d="m 382.29001,443.67001 h 5.28 V 461.88 h 0.13 c 0.94028,-1.58255 2.21027,-2.82919 3.81,-3.73999 1.67807,-0.99057 3.49139,-1.48388 5.44,-1.48001 3.92999,0 10.17002,2.4 10.17002,12.47 v 17.38001 h -5.28 v -16.79999 c 0,-4.70999 -1.78,-8.66 -6.75,-8.66 -0.79682,0.0174 -1.57233,0.15478 -2.32651,0.41232 -0.75421,0.25754 -1.45181,0.62311 -2.09277,1.09671 -0.64103,0.47357 -1.19541,1.03299 -1.66312,1.67822 -0.46774,0.6453 -0.82697,1.3462 -1.07761,2.10276 -0.26992,0.82199 -0.38992,1.66531 -0.35998,2.53 v 17.63998 h -5.28 z"
       style="fill:#6d6e71;fill-opacity:1;fill-rule:nonzero;stroke:none"
       transform="matrix(0.25186198,0,0,0.25156727,-19.817656,-37.82686)"
       clip-path="url(#clipPath709)" />
    <path
       id="path710"
       d="m 435.32999,473.73001 -4.20002,12.78 h -5.44 l 13.82999,-40.66998 h 6.32001 l 13.89001,40.66998 h -5.61999 l -4.35999,-12.78 z m 13.35998,-4.10998 -4,-11.70002 c -0.89001,-2.67001 -1.5,-5.08999 -2.1,-7.42001 h -0.14002 c -0.57999,2.37 -1.22,4.85999 -2,7.35001 l -4,11.76999 z"
       style="fill:#6d6e71;fill-opacity:1;fill-rule:nonzero;stroke:none"
       transform="matrix(0.25186198,0,0,0.25156727,-19.817656,-37.82686)"
       clip-path="url(#clipPath711)" />
    <path
       id="path712"
       d="m 485.60001,485.45999 c -2.66806,1.16727 -5.45804,1.73062 -8.37,1.69 -8.79999,0 -14.57001,-6 -14.57001,-14.92001 0,-8.92001 6.14002,-15.56 15.68,-15.56 2.5773,-0.0349 5.03732,0.48508 7.38,1.56 l -1.17999,4.07001 c -1.95212,-0.98941 -4.02213,-1.45609 -6.20999,-1.4 -6.65,0 -10.29999,5 -10.29001,11.04999 0,6.76999 4.35,10.92999 10.17001,10.92999 2.26734,0.009 4.43067,-0.46133 6.48999,-1.41 z"
       style="fill:#6d6e71;fill-opacity:1;fill-rule:nonzero;stroke:none"
       transform="matrix(0.25186198,0,0,0.25156727,-19.817656,-37.82686)"
       clip-path="url(#clipPath713)" />
    <path
       id="path714"
       d="m 508.07001,486.51001 -0.47,-3.67999 H 507.44 c -1.05121,1.40176 -2.36441,2.48629 -3.93957,3.2536 -1.5752,0.7673 -3.23868,1.13275 -4.99042,1.0964 -5.89001,0 -8.91,-4.19 -8.91,-8.38 0,-7.07001 6.26001,-10.95001 17.54,-10.87 v -0.61999 c 0,-2.37 -0.67001,-6.76999 -6.64999,-6.73001 -2.74197,-0.007 -5.2753,0.716 -7.60001,2.17001 l -1.20999,-3.53 c 2.97293,-1.7587 6.18625,-2.61203 9.64002,-2.56 8.92001,0 11.1,6.10001 11.1,11.95002 v 10.92001 c -0.0349,2.34476 0.11182,4.67807 0.44001,7 l -4.79004,-0.02 z m -0.82999,-14.89999 c -5.73999,-0.12 -12.32001,0.91 -12.32001,6.54998 0,3.48999 2.29001,5.09 5,5.09 0.7753,0.0224 1.53495,-0.0761 2.27893,-0.2955 0.74396,-0.21942 1.43549,-0.54889 2.07462,-0.98844 0.6391,-0.43954 1.19415,-0.96743 1.66519,-1.58367 0.47104,-0.61625 0.83481,-1.29038 1.09125,-2.0224 0.16684,-0.54419 0.25018,-1.10087 0.25,-1.67002 l -0.04,-5.07995 z"
       style="fill:#6d6e71;fill-opacity:1;fill-rule:nonzero;stroke:none"
       transform="matrix(0.25186198,0,0,0.25156727,-19.817656,-37.82686)"
       clip-path="url(#clipPath715)" />
    <path
       id="path716"
       d="M 546.15997,443.67001 V 479 c 0,2.59 0.1,5.51001 0.25,7.51999 H 541.69 l -0.27002,-5 h -0.14001 c -0.47089,0.89511 -1.05683,1.70715 -1.75794,2.43606 -0.70111,0.72895 -1.48974,1.34607 -2.36584,1.85138 -0.87616,0.50531 -1.80524,0.87891 -2.78729,1.12076 -0.98206,0.24188 -1.9784,0.34247 -2.98896,0.30179 -7.08001,0 -12.53003,-6 -12.53003,-14.82999 -0.05,-9.76001 6,-15.69 13.10999,-15.69 4.47998,0 7.5,2.10001 8.81,4.42999 h 0.11999 v -17.46997 z m -5.27002,25.53 c 0.002,-0.76465 -0.0744,-1.5213 -0.22998,-2.26999 -0.19781,-0.86929 -0.53418,-1.68121 -1.00897,-2.43576 -0.47479,-0.75451 -1.06128,-1.40899 -1.75934,-1.96347 -0.69812,-0.55447 -1.46838,-0.97757 -2.31079,-1.26925 -0.84241,-0.29175 -1.70935,-0.43558 -2.60089,-0.43152 -5.5,0 -8.78003,4.82 -8.78003,11.23001 0,5.92999 2.95001,10.85 8.66998,10.85 0.91315,-0.008 1.79895,-0.16815 2.65729,-0.4797 0.8584,-0.31159 1.6405,-0.75708 2.34638,-1.33649 0.70581,-0.57941 1.29516,-1.2597 1.768,-2.04092 0.47284,-0.78122 0.80231,-1.61884 0.98834,-2.51288 0.18335,-0.74899 0.27002,-1.50897 0.26001,-2.28 z"
       style="fill:#6d6e71;fill-opacity:1;fill-rule:nonzero;stroke:none"
       transform="matrix(0.25186198,0,0,0.25156727,-19.817656,-37.82686)"
       clip-path="url(#clipPath717)" />
    <path
       id="path718"
       d="m 558,472.88 c 0.10999,7.17002 4.65997,10.13001 10,10.13001 2.79938,0.0785 5.49274,-0.41812 8.08002,-1.48999 l 0.92999,3.76999 c -3.11041,1.31528 -6.35376,1.93527 -9.72998,1.85998 -9,0 -14.37,-6 -14.37,-14.73001 0,-8.73001 5.21003,-15.76001 13.73999,-15.76001 9.52002,0 12,8.35999 12,13.73001 0.0209,0.83585 -0.0391,1.66584 -0.17999,2.48999 z m 15.53998,-3.82 c 0.05,-3.34 -1.37,-8.59 -7.32001,-8.59 -5.41998,0 -7.72998,4.9 -8.15002,8.59 z"
       style="fill:#6d6e71;fill-opacity:1;fill-rule:nonzero;stroke:none"
       transform="matrix(0.25186198,0,0,0.25156727,-19.817656,-37.82686)"
       clip-path="url(#clipPath719)" />
    <path
       id="path720"
       d="m 585.25,465.20999 c 0,-3 -0.1,-5.45999 -0.25,-7.88 h 4.62 l 0.28002,4.70001 h 0.1 c 0.44067,-0.83368 0.98749,-1.5907 1.64044,-2.27103 0.65289,-0.68036 1.38678,-1.25781 2.20166,-1.73239 0.81482,-0.47461 1.6792,-0.82803 2.59314,-1.06027 0.91388,-0.23224 1.8421,-0.33435 2.78473,-0.30631 0.90607,-0.008 1.79126,0.12351 2.65558,0.39533 0.86432,0.27182 1.66559,0.67038 2.40381,1.19574 0.73822,0.52539 1.37726,1.15188 1.91723,1.87948 0.53998,0.72757 0.95441,1.52073 1.24335,2.37946 h 0.13001 c 0.81927,-1.50678 1.91595,-2.77344 3.28997,-3.79999 1.90198,-1.43063 4.042,-2.09732 6.41999,-2 3.90002,0 9.63,2.51001 9.63,12.67002 v 17.17999 h -5.17999 V 470 c 0,-5.66 -2.08002,-9 -6.33002,-9 -0.70672,0.0268 -1.39319,0.15906 -2.05938,0.39667 -0.66614,0.23761 -1.28132,0.56967 -1.84559,0.99615 -0.5642,0.42652 -1.05145,0.92786 -1.46179,1.504 -0.41028,0.57611 -0.72467,1.2005 -0.94324,1.87317 -0.28881,0.86658 -0.43548,1.75659 -0.44,2.67001 v 18.06 h -5.17999 V 469 c 0,-4.64999 -2.06,-8 -6.07001,-8 -3.29999,0 -5.72998,2.64001 -6.60998,5.29001 -0.27094,0.85229 -0.4043,1.72562 -0.40003,2.61999 v 17.59 h -5.17999 l 0.0401,-21.29001 z"
       style="fill:#6d6e71;fill-opacity:1;fill-rule:nonzero;stroke:none"
       transform="matrix(0.25186198,0,0,0.25156727,-19.817656,-37.82686)"
       clip-path="url(#clipPath721)" />
    <path
       id="path722"
       d="m 636.71002,457.32999 6.38001,17.25 c 0.69,1.92999 1.40002,4.22 1.88,5.95001 h 0.14002 c 0.52002,-1.70999 1.16998,-3.95001 1.86999,-6.07001 l 5.77002,-17.13 h 5.63001 l -8,20.79001 c -3.78003,10 -6.39002,15.14001 -10,18.29998 -1.87696,1.69605 -4.04694,2.83271 -6.51001,3.41001 l -1.32001,-4.44001 c 1.71905,-0.55987 3.26904,-1.42321 4.65002,-2.58999 1.92206,-1.63788 3.4021,-3.60788 4.44001,-5.91001 0.22918,-0.39703 0.36584,-0.8237 0.40997,-1.27999 -0.0258,-0.47986 -0.14911,-0.9332 -0.37,-1.35999 l -10.76001,-26.92001 z"
       style="fill:#6d6e71;fill-opacity:1;fill-rule:nonzero;stroke:none"
       transform="matrix(0.25186198,0,0,0.25156727,-19.817656,-37.82686)"
       clip-path="url(#clipPath723)" />
    <path
       id="path724"
       d="m 113.56,413 c 0,-5 4.5,-9.17001 10,-9.17001 h 529.33001 c 5.5,0 10,4.13 10,9.17001 0,5.04001 -4.5,9.17001 -10,9.17001 H 123.56 c -5.5,0 -10,-4.17001 -10,-9.17001 z"
       style="fill:url(#linearGradient731);fill-opacity:1;fill-rule:nonzero;stroke:none"
       transform="matrix(0.21182839,0,0,0.21218449,-12.248721,-22.107152)"
       clip-path="url(#clipPath731)" />
    <path
       id="path732"
       d="M 305.59,255.23 C 305,287 296.70001,316.16 276,340.89001 c -14.19,16.92002 -32.84,25.94001 -54.64999,28.67002 -20.24001,2.53 -40.24001,1.36999 -59.72001,-4.78 -31,-9.76001 -52.19,-30.22 -61.4,-61.16998 C 88.510002,264.29999 89.150002,225 108.38,187.86 124.5,156.7 150.85001,140 186.09,137.54001 c 18.41,-1.29 36.50999,0.27 54,6.14999 29.92999,10.05 47.55999,31.9 57.05999,61.10001 5.33002,16.35998 8.85001,33.06 8.44001,50.43999 z m -35.32999,1.15998 c -0.20001,-8.74 -0.57999,-17.36999 -2.32999,-25.88 -3.26001,-15.83 -8.29001,-31 -19.28,-43.3 C 233.27,170 213,165.57001 191.11,167.38 c -23.5,1.94001 -41.53,13 -51.71001,34.73 -15.82,33.76 -16.5,68.47002 -1.05999,102.06999 20.13,43.78 78.88,51.56 111,15.59 16.08999,-17.97 19.70999,-40.37998 20.92001,-63.37998 z"
       style="fill:#6d6e71;fill-opacity:1;fill-rule:nonzero;stroke:none"
       transform="matrix(0.21182839,0,0,0.21218449,-12.248721,-22.107152)"
       clip-path="url(#clipPath733)" />
    <path
       id="path734"
       d="m 554.48999,369.66 c -2.17609,0.0609 -4.35059,0.0248 -6.52344,-0.10836 -2.17285,-0.13321 -4.33545,-0.36298 -6.48779,-0.6893 -2.15241,-0.3263 -4.28589,-0.74787 -6.40057,-1.26471 -2.11469,-0.51682 -4.20209,-1.12687 -6.26233,-1.83008 -2.06024,-0.70322 -4.08503,-1.49686 -6.0744,-2.38086 -1.98932,-0.88403 -3.93537,-1.85495 -5.83808,-2.91272 -1.90265,-1.05777 -3.75445,-2.19821 -5.55527,-3.42136 -1.80081,-1.22311 -3.54358,-2.52405 -5.22827,-3.9028 -1.68466,-1.37872 -3.30456,-2.82977 -4.85968,-4.35315 -1.55508,-1.52341 -3.03921,-3.1131 -4.45239,-4.76901 -1.41315,-1.65588 -2.7497,-3.37146 -4.00967,-5.1467 -1.25998,-1.77524 -2.43836,-3.60309 -3.53513,-5.48358 -1.09677,-1.88049 -2.10754,-3.80612 -3.03235,-5.77686 -0.92483,-1.97073 -1.76004,-3.97873 -2.50555,-6.02404 -0.74552,-2.04529 -1.39844,-4.11972 -1.95871,-6.22333 -0.56031,-2.10361 -1.02576,-4.228 -1.39636,-6.37314 -7.93,-43.92999 18.35998,-86.07001 65.70001,-91.23999 13.83478,-1.56065 27.38482,-0.22733 40.65002,4 17.19,5.45 30,16.38 36.92999,33.25999 9,22.00002 10.28998,44.6 2,67.12001 -10.65002,29.00998 -38.82,48.5 -71.16003,47.51999 z m 41.87,-74.25 c 0.06,-18.67999 -3.85999,-33.13 -12.21003,-46.42999 -8.79998,-14 -21.35998,-20.63 -37.66998,-18.45999 -15.27002,2 -24.06,12 -28.71997,26.20999 -5,15.20999 -5.28003,30.66 -2.52002,46.25 2.32001,13.10001 6.46002,25.57001 14.46002,36.38999 15.20001,20.55999 40.42999,22.05999 55.20001,3.33999 3.92609,-5.12564 6.90607,-10.75229 8.94001,-16.88 3.83996,-10.95999 3,-22.22 2.51996,-30.41999 z"
       style="fill:#6d6e71;fill-opacity:1;fill-rule:nonzero;stroke:none"
       transform="matrix(0.21182839,0,0,0.21218449,-12.248721,-22.107152)"
       clip-path="url(#clipPath735)" />
    <path
       id="path736"
       d="m 466.09,337.16 c -0.19001,4.69001 0,9.39002 -1.07999,14 -2.32001,10.4 -8.5,16.9 -17.60001,18.22 -11.36999,1.65 -20.16,-2.27999 -25.25,-11.83999 -5.6,-10.54999 -8,-22.26001 -11.28,-33.61002 -4.95001,-17.14999 -9.38,-34.44 -14.17001,-51.63 -0.48001,-1.70999 0,-4.57999 -3.17001,-4.54001 -2.94,0 -2.73999,2.79999 -3.4,4.51001 -10.66665,27.73334 -21.25665,55.48666 -31.76998,83.26001 -3.79999,10 -22.29001,15.91 -31.09,9.85998 -2.45001,-1.67999 -2.76001,-4.23001 -2.20001,-7.07 1.45001,-7.25 4.51999,-13.94001 7.16,-20.76001 13.26999,-34.18 25.95001,-68.60001 40.54001,-102.26999 9.28,-21.41001 4.45001,-41.72 -6.85999,-60.86 -5.20999,-8.81 -13.17999,-9.41001 -20.88,-2.59 -2.60443,2.20357 -4.84442,4.73024 -6.72,7.58 -1.65,2.61 -3.84,4.14 -7.13001,2.77001 -0.68301,-0.22876 -1.30465,-0.56946 -1.86496,-1.0221 -0.56027,-0.45265 -1.02401,-0.9888 -1.39123,-1.60846 -0.36722,-0.61967 -0.61481,-1.28392 -0.7428,-1.99275 -0.12802,-0.70885 -0.12836,-1.41774 -0.001,-2.12669 0.71063,-6.16118 1.80063,-12.25452 3.26999,-18.28 3,-11.14 11.39002,-17 24.54001,-18.10001 9,-0.72999 17.07001,4.25 21.45001,14.41001 6,13.83999 9.32999,28.55999 13.60999,43 11.44,38.53999 22.6,77.16999 34.07,115.69999 2.29999,7.73999 5.29001,15.31 10,22 5.25,7.47 10.34,7.70002 16.44001,0.82999 2.48065,-2.85678 4.59399,-5.96347 6.33999,-9.32001 1.14002,-2.13 2.73999,-3.66 5.39002,-3.06 2.88,0.64002 3.85,2.68 3.79001,5.47001 -0.09,3.04003 -0.01,6.05004 -3e-5,9.07003 z"
       style="fill:#6d6e71;fill-opacity:1;fill-rule:nonzero;stroke:none"
       transform="matrix(0.21182839,0,0,0.21218449,-12.248721,-22.107152)"
       clip-path="url(#clipPath737)" />
    <path
       id="path738"
       d="m 728,221.48 c 20.63,0.3 30.52002,1.21 35.79999,-4 0.75,-0.74001 2.33001,-2.53 4.19,-2.30001 2.64001,0.33 4.63001,4.61 5.10999,7.84 1.26001,8.5 -7,17.32001 -15.15998,22 -4.35467,2.33945 -9.00134,3.40279 -13.94,3.19002 -12.21997,-0.11 -24.41998,-1.29 -36.66998,0 -21.69001,2.27 -36.57001,17.62001 -37.70002,39.47999 -0.54998,10.81 -0.54998,21.60001 6.18,30.9 9.31,12.83999 23.20001,15.89001 37.78998,16.88998 8.05999,0.54999 16.15997,0.12 24.11999,2 34.29999,8.26001 40.46002,40.62 21.14002,65.42999 -11.27002,14.48001 -27.82001,19.94001 -45.20002,23.10001 -10.53997,1.92001 -21,1.84 -31.07,-2.41 -6.84998,-2.89002 -10,-7.26999 -9.40998,-12.57999 0.90998,-7.57999 6.35999,-11.62 14.46997,-10.56 5.96936,0.90869 11.75269,2.49536 17.35004,4.76001 10.57001,4 21.19,4.88001 31.82001,0.16 9,-4 14.21997,-10.82 15.15997,-20.75 0.69,-7.27999 -2.82001,-12.67999 -10.27002,-14.82998 -8.39465,-2.28085 -16.94134,-3.45752 -25.64001,-3.53 -6.02692,-0.17111 -12.01026,-0.77445 -17.95002,-1.81 -24.22998,-4.08999 -35.54998,-20.36999 -40.70001,-42.72 -5.54999,-24.11002 -3,-47.29999 6.46997,-70.06 8.16999,-19.58999 23,-29 43.70001,-30.14999 C 710.19,221.38 716.09998,221.3 728,221.48 Z"
       style="fill:#6d6e71;fill-opacity:1;fill-rule:nonzero;stroke:none"
       transform="matrix(0.21182839,0,0,0.21218449,-12.248721,-22.107152)"
       clip-path="url(#clipPath739)" />
    <g
       id="g813"
       transform="matrix(0.26458333,0,0,0.26458333,-2763.8302,-39.660386)">
      <path
         id="path814"
         d="m 295.75665,604.00305 h 409.02957 v 179.6523 H 295.75665 Z"
         style="fill:#000000;fill-opacity:0;fill-rule:nonzero;stroke:none"
         transform="matrix(1.3333333,0,0,-1.3333333,10079.36,1221.12)" />
    </g>
    <g
       id="g814"
       transform="matrix(0.26458333,0,0,0.26458333,-2763.8302,-39.660386)">
      <path
         id="path815"
         d="m 284.79437,553.7283 h 419.99185 v 46.42226 H 284.79437 Z"
         style="fill:#000000;fill-opacity:0;fill-rule:nonzero;stroke:none"
         transform="matrix(1.3333333,0,0,-1.3333333,10079.36,1221.12)" />
    </g>
  </g>
</svg>
